<svg width="24" height="24" viewBox="0 0 24 24" fill="none" xmlns="http://www.w3.org/2000/svg">
<path d="M12 24C18.6274 24 24 18.6274 24 12C24 5.37258 18.6274 0 12 0C5.37258 0 0 5.37258 0 12C0 18.6274 5.37258 24 12 24Z" fill="#F3BA2F"/>
<path d="M8.50426 10.5637L12 7.068L15.4974 10.5653L17.5314 8.53126L12 3L6.4704 8.5296L8.50433 10.5636L8.50426 10.5637ZM3 12L5.03407 9.96564L7.068 11.9996L5.03393 14.0336L3 12ZM8.50426 13.4365L12 16.932L15.4973 13.4348L17.5324 15.4677L17.5314 15.4688L12 21L6.46752 15.4675L8.50447 13.4363L8.50426 13.4365ZM16.932 12.0009L18.9661 9.96679L21 12.0007L18.966 14.0348L16.932 12.0009Z" fill="white"/>
<path d="M14.0629 11.9989H14.0638L12 9.93497L9.93785 11.9968L9.93497 11.9996L9.93785 12.0026L12 14.065L14.064 12.0011L14.065 11.9999L14.0631 11.9989" fill="white"/>
</svg>