<svg width="24.000000000000004" height="24.000000000000004" xmlns="http://www.w3.org/2000/svg" fill="none">

 <g>
  <title>Layer 1</title>
  <path id="svg_1" fill="#1b86a2" d="m12,24.03512c6.6274,0 12,-5.3726 12,-12c0,-6.62742 -5.3726,-12 -12,-12c-6.62742,0 -12,5.37258 -12,12c0,6.6274 5.37258,12 12,12z"/>
  <g id="svg_7">
   <path id="svg_2" fill="white" d="m6.48178,6.58033l0.87126,0.8605l-0.87126,0.85495l-0.86564,-0.85495l0.86564,-0.8605zm0.01124,7.62787c-1.00428,0 -1.79685,-0.24983 -2.37768,-0.74937c-0.58084,-0.49599 -0.87126,-1.1955 -0.87126,-2.09856c0,-0.81053 0.18549,-1.62662 0.55648,-2.44825l0.6689,0.21651c-0.19487,0.62549 -0.2923,1.16954 -0.2923,1.63218c0,1.25836 0.78131,1.88754 2.34395,1.88754c0.29979,0 0.59395,-0.0333 0.8825,-0.09992c0.2923,-0.06292 0.56024,-0.15545 0.80381,-0.27759c0.24732,-0.11844 0.44594,-0.27757 0.59583,-0.47744c0.14988,-0.19985 0.22483,-0.42192 0.22483,-0.66618c0,-0.15915 -0.07495,-0.41453 -0.22483,-0.76613c-0.14615,-0.3516 -0.31478,-0.69025 -0.50589,-1.01594l0.78693,-1.16029c0.07121,-0.11103 0.15926,-0.08698 0.26418,0.07217c0.45718,0.71431 0.68579,1.53225 0.68579,2.45382c0,1.10661 -0.30918,1.96527 -0.92748,2.57596c-0.61457,0.61434 -1.48583,0.9215 -2.61377,0.9215z"/>
   <path id="svg_3" fill="white" d="m8.37625,13.26175c0.00666,0.59418 0.01334,0.92685 0.02002,0.99813c0.03003,0.31913 0.12179,0.52961 0.27527,0.63144c0.12345,0.08146 0.30696,0.12219 0.55054,0.12219l0.13513,0c0.08342,0 0.12512,0.16472 0.12512,0.49403l0,0.37172c0,0.42096 -0.0417,0.63144 -0.12512,0.63144l-0.16016,0c-0.25024,0 -0.47046,-0.02719 -0.66064,-0.08146c-0.18685,-0.05427 -0.34368,-0.12734 -0.47047,-0.21898c-0.12679,-0.095 -0.23356,-0.21898 -0.32032,-0.37172c-0.08341,-0.15274 -0.14848,-0.3123 -0.19519,-0.4787c-0.04672,-0.16975 -0.08175,-0.37004 -0.1051,-0.60089c-0.02002,-0.2342 -0.03337,-0.46336 -0.04004,-0.6875c-0.00333,-0.22737 -0.00668,-0.48708 -0.01001,-0.77914c0,-0.03726 0,-0.06445 0,-0.08146c0,-0.02037 0,-0.04576 0,-0.07631c0,-0.03055 0,-0.05942 0,-0.08661c-0.01001,-1.01502 -0.09906,-1.09492 -0.26923,-2.16768l0.89087,-0.57034c0.1368,-0.08493 0.21688,-0.11884 0.24023,-0.10194c0.02669,0.01701 0.04337,0.11033 0.05005,0.28008c0.02003,0.44144 0.04337,0.48936 0.06904,2.77371z"/>
   <path id="svg_4" fill="white" d="m9.3535,16.46862c-0.18351,0 -0.27526,-0.24438 -0.27526,-0.73326l0,-0.16807c0,-0.39724 0.09175,-0.59586 0.27526,-0.59586l0.13014,0c0.21687,0 0.43709,-0.05762 0.66065,-0.1731c0.22355,-0.11536 0.41207,-0.28511 0.56555,-0.50925c0.11344,-0.16292 0.19853,-0.28679 0.25524,-0.37172c0.06006,-0.08481 0.13847,-0.19179 0.23524,-0.32081c0.10009,-0.13237 0.18183,-0.23252 0.24525,-0.30044c0.06334,-0.06792 0.14011,-0.14423 0.23018,-0.22917c0.09348,-0.08481 0.17849,-0.14771 0.25525,-0.18844c0.07676,-0.04073 0.16189,-0.07463 0.25525,-0.10183c0.09678,-0.03055 0.19356,-0.04576 0.29034,-0.04576c0.30023,0 0.57385,0.11368 0.82075,0.34117c0.2469,0.22402 0.43374,0.50745 0.56055,0.85042c0.1301,0.34285 0.19521,0.69588 0.19521,1.05922c0,0.39041 -0.12845,0.76381 -0.38535,1.1202c-0.25361,0.35315 -0.52052,0.52961 -0.80085,0.52961c-0.53712,0 -1.17949,-0.3377 -1.92683,-1.01334c-0.22022,0.27505 -0.46212,0.48553 -0.72571,0.63144c-0.26026,0.14603 -0.5105,0.21898 -0.75074,0.21898l-0.11011,0zm3.51845,-1.19662c0.2436,0 0.36534,-0.10362 0.36534,-0.31075c0,-0.24103 -0.07512,-0.48205 -0.22523,-0.72308c-0.15012,-0.24103 -0.3186,-0.36154 -0.50545,-0.36154c-0.09007,0 -0.17849,0.02037 -0.26526,0.0611c-0.08348,0.04073 -0.16365,0.10542 -0.2403,0.1834c-0.07665,0.07799 -0.14164,0.15094 -0.18508,0.20868c-0.04345,0.05774 -0.09513,0.13249 -0.15518,0.22413c0.52052,0.4787 0.92424,0.71805 1.21116,0.71805z"/>
   <path id="svg_5" fill="white" d="m15.61825,13.19812c0,0 0.23029,0 0.69065,0c-0.16342,-0.68235 -0.47213,-1.02352 -0.92589,-1.02352c-0.17684,0 -0.32366,0.05942 -0.44046,0.17825c-0.11338,0.11536 -0.17013,0.27157 -0.17013,0.4684c0,0.16304 0.06005,0.26654 0.18014,0.31063c0.12351,0.0442 0.34544,0.06625 0.66569,0.06625zm-1.74169,3.25397c1.30794,-0.50925 2.07536,-1.10666 2.30224,-1.79248c-0.29022,0 -0.54218,-0.01018 -0.75576,-0.03055c-0.21346,-0.02372 -0.41703,-0.06445 -0.61059,-0.12219c-0.19015,-0.05774 -0.34532,-0.13585 -0.46542,-0.23432c-0.12009,-0.10183 -0.21522,-0.23252 -0.28528,-0.39209c-0.06676,-0.16292 -0.10008,-0.35471 -0.10008,-0.57537c0,-0.27505 0.03497,-0.55165 0.10502,-0.83005c0.07347,-0.2784 0.17519,-0.53296 0.30529,-0.76393c0.13022,-0.2342 0.29705,-0.42431 0.5005,-0.57034c0.20686,-0.14591 0.43045,-0.21886 0.67075,-0.21886c0.2469,0 0.46871,0.06445 0.66557,0.19347c0.20027,0.12554 0.36204,0.29709 0.48555,0.51428c0.12339,0.21731 0.22182,0.45498 0.29529,0.71302c0.07335,0.25792 0.12009,0.53129 0.14011,0.81975l0.51051,0c0.08336,0 0.12515,0.16472 0.12515,0.49403l0,0.37172c0,0.42096 -0.0418,0.63144 -0.12515,0.63144l-0.59057,0c-0.07005,0.39724 -0.1852,0.76045 -0.34532,1.08977c-0.16024,0.33267 -0.33202,0.59753 -0.51557,0.79436c-0.18343,0.2003 -0.377,0.36837 -0.58056,0.50421c-0.20015,0.1392 -0.377,0.23587 -0.53052,0.29026c-0.15012,0.05427 -0.27692,0.08146 -0.38029,0.08146c-0.14682,0 -0.29705,-0.04924 -0.45046,-0.14771l-0.47554,-0.30548c-0.14011,-0.09164 -0.22523,-0.16304 -0.25525,-0.21395c-0.03332,-0.05091 -0.02496,-0.09667 0.02508,-0.1374c0.05334,-0.04073 0.16519,-0.09512 0.33532,-0.16304z"/>
   <path id="svg_6" fill="white" d="m20.29389,12.26109c0,0.76045 -0.19851,1.35116 -0.59552,1.77224c-0.39713,0.41748 -0.95768,0.62628 -1.68164,0.62628l-0.55054,0c-0.18355,0 -0.27527,-0.24438 -0.27527,-0.73326l0,-0.16807c0,-0.39724 0.09172,-0.59586 0.27527,-0.59586l0.57056,0c0.45376,0 0.77907,-0.02372 0.97593,-0.07128c0.20015,-0.04744 0.30035,-0.15777 0.30035,-0.33099c0,-0.27493 -0.13858,-0.74344 -0.4155,-1.40543l0.68064,-0.8963c0.04674,-0.0611 0.07676,-0.10015 0.09019,-0.11704c0.0166,-0.02048 0.03497,-0.03234 0.05498,-0.0357c0.02343,-0.00335 0.04168,0.00683 0.0551,0.03055c0.01672,0.02372 0.04168,0.06445 0.075,0.12219c0.29364,0.51607 0.44046,1.11696 0.44046,1.80266zm-0.53547,-4.03814l0.73574,0.74344l-0.73574,0.74859l-0.7308,-0.74859l0.7308,-0.74344zm-1.57156,0l0.73068,0.74344l-0.73068,0.74859l-0.73574,-0.74859l0.73574,-0.74344z"/>
  </g>
 </g>
</svg>