<svg width="4000" height="4000" xmlns="http://www.w3.org/2000/svg" class="img-fluid">

 <g>
  <title>Layer 1</title>
  <g id="svg_1">
   <path id="svg_2" d="m1915,3993c-819,-38 -1535,-572 -1800,-1343c-121,-351 -141,-756 -56,-1114c190,-792 859,-1399 1668,-1512c153,-21 393,-21 546,0c644,90 1208,492 1504,1072c87,171 157,378 188,557c150,886 -294,1751 -1100,2142c-293,142 -632,213 -950,198zm636,-1435c115,-39 191,-157 159,-247c-7,-19 -34,-71 -60,-116c-26,-44 -117,-201 -202,-350c-313,-544 -394,-679 -420,-698c-25,-19 -29,-19 -51,-4c-15,9 -119,179 -257,419c-128,222 -278,481 -333,577c-83,143 -100,181 -100,215c0,74 58,155 138,192l50,24l521,0c370,0 531,-3 555,-12z"/>
   <path id="svg_3" d="m1422,2428c-23,-23 -14,-119 16,-173c16,-27 94,-167 174,-310s171,-311 202,-372c55,-112 57,-113 91,-113l35,0l0,980l-253,0c-183,0 -256,-3 -265,-12zm639,-478l0,-490l74,0l54,108c29,59 88,170 131,247s124,221 179,320c107,191 120,233 85,283c-15,22 -18,22 -270,22l-254,0l1,-490z"/>
  </g>
  <path id="svg_4" d="m1390,2573c-63,-32 -114,-93 -131,-156c-22,-81 -8,-125 99,-310c55,-95 204,-353 332,-575c129,-223 243,-410 255,-418c33,-22 82,-20 113,3c27,20 109,156 440,733c96,168 178,310 182,315c5,6 22,38 39,71c67,133 22,276 -106,340c-36,18 -71,19 -603,22l-565,2l-55,-27zm520,-623c0,-253 -2,-460 -5,-460s-30,51 -61,113c-31,61 -122,229 -202,372s-158,283 -174,310c-30,54 -35,94 -16,113c9,9 75,12 235,12l223,0l0,-460zm646,434c21,-31 25,-23 -171,-369c-75,-132 -168,-304 -208,-382c-39,-79 -74,-143 -77,-143s-6,207 -8,460l-3,460l451,0l16,-26z" fill="#FFF"/>
 </g>
</svg>