<?xml version="1.0" encoding="UTF-8"?>
<svg xmlns:xodm="http://www.corel.com/coreldraw/odm/2003" xmlns="http://www.w3.org/2000/svg" xmlns:xlink="http://www.w3.org/1999/xlink" version="1.1" id="Layer_1" x="0px" y="0px" viewBox="0 0 2500 2500" style="enable-background:new 0 0 2500 2500;" xml:space="preserve">
<style type="text/css">
	.st0{fill:#0088CC;}
	.st1{fill-rule:evenodd;clip-rule:evenodd;fill:#FFFFFF;}
</style>
<g id="Layer_x0020_1">
	<g id="_1626924063040">
		<path class="st0" d="M1250,2500c687.5,0,1250-562.5,1250-1250S1937.5,0,1250,0S0,562.5,0,1250S562.5,2500,1250,2500z"></path>
		<path class="st1" d="M898.4,828.1h703.1c23.4,0,46.9,0,78.1,15.6s46.9,39.1,62.5,54.7c0,0,0,0,0,7.8    c15.6,23.4,23.4,46.9,23.4,78.1c0,23.4-7.8,54.7-23.4,78.1l0,0l-445.3,757.8c-7.8,15.6-31.3,23.4-46.9,23.4s-39.1-7.8-46.9-23.4    l-437.5-757.8l0,0c-7.8-15.6-23.4-39.1-31.2-78.1c0-31.2,7.8-62.5,15.6-85.9c15.6-23.4,39.1-46.9,62.5-62.5    C851.6,828.1,882.8,828.1,898.4,828.1L898.4,828.1z M1195.3,937.5H898.4c-15.6,0-23.4,0-31.2,0c-7.8,0-15.6,7.8-15.6,15.6    c-7.8,7.8-7.8,15.6-7.8,23.4s0,7.8,15.6,31.2l0,0l335.9,585.9V937.5z M1304.7,937.5v656.2l343.7-585.9c0-7.8,7.8-15.6,7.8-31.2    c0-7.8,0-15.6-7.8-23.4c-7.8-7.8-7.8-7.8-7.8-7.8s0,0-7.8,0s-15.6-7.8-31.2-7.8H1304.7L1304.7,937.5z"></path>
	</g>
</g>
</svg>
